<svg xmlns="http://www.w3.org/2000/svg" viewBox="0 0 64 64" fill="none">
  <defs>
    <linearGradient id="bg" x1="12" y1="8" x2="52" y2="56" gradientUnits="userSpaceOnUse">
      <stop offset="0" stop-color="#f7f3ea" />
      <stop offset="1" stop-color="#dfd2bd" />
    </linearGradient>
    <linearGradient id="lens" x1="20" y1="18" x2="45" y2="46" gradientUnits="userSpaceOnUse">
      <stop offset="0" stop-color="#8f5838" />
      <stop offset="1" stop-color="#151515" />
    </linearGradient>
  </defs>

  <rect x="4" y="4" width="56" height="56" rx="18" fill="url(#bg)" />
  <rect x="4.75" y="4.75" width="54.5" height="54.5" rx="17.25" stroke="#151515" stroke-opacity="0.08" stroke-width="1.5" />

  <circle cx="31" cy="34" r="15" fill="#fbf8f1" fill-opacity="0.72" />
  <circle cx="31" cy="34" r="13" fill="url(#lens)" />
  <circle cx="31" cy="34" r="7.5" fill="#151515" />
  <circle cx="31" cy="34" r="3.25" fill="#f7f3ea" fill-opacity="0.92" />

  <path d="M31 20.5c4 0 7 3.1 7 7v2.2c0 .8-.3 1.5-.9 2.1L31 38.1l-6.1-6.3a3 3 0 0 1-.9-2.1v-2.2c0-3.9 3-7 7-7Z" fill="#a66a45" fill-opacity="0.92" />
  <path d="M23.7 31.8 31 38.1l-1.3 8.7a12.9 12.9 0 0 1-6.7-3.7 13 13 0 0 1-3.5-7.2l4.2-4.1Z" fill="#7f4d31" fill-opacity="0.92" />
  <path d="M31 38.1 38.3 31.8l4.2 4.1a13 13 0 0 1-3.6 7.2 12.9 12.9 0 0 1-6.6 3.7L31 38.1Z" fill="#5f3925" fill-opacity="0.92" />

  <path d="M44 13.5 45.7 18l4.8 1.7-4.8 1.6L44 25.8l-1.6-4.5-4.8-1.6 4.8-1.7L44 13.5Z" fill="#8f5838" />
</svg>